<?xml version="1.0" encoding="utf-8"?>
<!-- Generator: Adobe Illustrator 25.0.1, SVG Export Plug-In . SVG Version: 6.00 Build 0)  -->
<svg version="1.1" id="Calque_1" xmlns="http://www.w3.org/2000/svg" xmlns:xlink="http://www.w3.org/1999/xlink" x="0px" y="0px"
	 viewBox="0 0 1133.9 1133.9" style="enable-background:new 0 0 1133.9 1133.9;" xml:space="preserve">
<style type="text/css">
	.st0{fill:#FA674B;stroke:#FFFFFF;stroke-width:0.5;stroke-miterlimit:10;}
	.st1{fill:#FFFFFF;}
	.st2{fill:#7F7FF9;}
	.st3{fill:none;stroke:#FFFFFF;stroke-linecap:round;stroke-linejoin:round;stroke-miterlimit:10;}
	.st4{fill:none;stroke:#FFFFFF;stroke-width:0.5;stroke-miterlimit:10;}
	.st5{fill:#FFFFFF;stroke:#FA674B;stroke-width:0.5;stroke-miterlimit:10;}
	.st6{fill:none;stroke:#FFFFFF;stroke-width:2;stroke-linecap:round;stroke-miterlimit:10;}
</style>
<g>
	<path class="st0" d="M573.7,415c109.4,1.4,193.4,172.2,202.1,238.9c0,0,84,1.1,79.6,63.5c-4.6,62.3-89.4,52.8-89.4,52.8
		s-0.3,105.8-185,105.6c-184.7,0-191.2-89.3-191.2-89.3s-102.9,45.3-118.9-41.7c-16-87,107.8-53.7,107.8-53.7S376,412.5,573.7,415z"
		/>
	<path class="st1" d="M647.1,596.3c0,0,16.3-2.3,29.5-14.7c0,0,35.2,25.8,8.9,40.6C658.8,637.1,648.8,607.4,647.1,596.3z"/>
	<path class="st1" d="M543.9,674h-140c0,0,3.3-48-63.1-40.6c-35.2,3.6-22.2,59.2,17.6,59.2c0,0-22.2,3.6-17.6,33.3
		c4.3,29.5,70.7,14.7,66.1-18.6l136.8-4.8C543.9,702.6,561.8,692.4,543.9,674z"/>
	<path class="st1" d="M593.2,674h140c0,0-3.3-48,63.1-40.6c35.2,3.6,22.2,59.2-17.6,59.2c0,0,22.2,3.6,17.6,33.3
		c-4.3,29.5-70.7,14.7-66.1-18.6l-136.8-4.8C593.2,702.6,575.6,692.4,593.2,674z"/>
	<path class="st0" d="M535.3,714.6c0,0,30.9-18.6,8.9-40.6c-22.2-22.2-41.4,0-41.4,0h-20.6c0,0,17.9-51.7,97.2-48
		c79.6,3.6,86.1,48,86.1,48l-45.2-0.5c0,0-13-14.3-27.1,0.5c-13.8,14.7-9.8,29.5,10.3,40.6H535.3z"/>
	<path class="st1" d="M449.1,605.6c0,0,22.2,7.5,44.2,7.5c0,0-4.3,22.2-26.5,18.6C444.8,627.8,444.8,613,449.1,605.6z"/>
	<ellipse class="st2" cx="468.9" cy="618.5" rx="8.9" ry="7.5"/>
	<ellipse class="st2" cx="672.1" cy="607.4" rx="8.9" ry="7.5"/>
	<path class="st3" d="M413.6,587.2c0,0,95.1,72.1,156.8-16.5c0,0,46.3,86.8,134.6-20.4"/>
	<path class="st3" d="M462.4,539.2c0,0,22.2,40.6,108.1,31.3c85.9-9.3,100.8-52.8,100.8-52.8"/>
	<path class="st3" d="M497.6,516.9c0,0,17.6,18.6,66.1,11.1c48.5-7.5,61.8-29.5,61.8-29.5"/>
	<path class="st3" d="M528.5,480c0,0,10,7.9,38.2,7.7c28.2-0.2,36.8-11.3,36.8-11.3"/>
	<path class="st3" d="M436.1,605.6c0,0-9.2,36.9,30.6,33.3c39.8-3.6,43.3-20.4,43.3-20.4s5.1,38.8-83.2,27.6"/>
	<path class="st3" d="M629.8,605.6c0,0,22.5,51.7,84.2,33.3"/>
	<path class="st3" d="M446.7,716.8c0,0-11.1,38.5,0,78.2c0,0,24.4-58.2,143.6-59.2S717.8,795,717.8,795s11.6-44.4-20.3-78.2"/>
	<path class="st1" d="M468.6,769.6c0,0-10.8-23.3,9.2-38.3c0,0,3.8,26.1,14.1,24L468.6,769.6z"/>
	<path class="st1" d="M497.6,753.3c0,0-2.4-27.9,22.2-36.5c0,0-6.8,25.6,3.8,26.5L497.6,753.3z"/>
	<path class="st1" d="M690.5,756.5c0,0,6-24.5-16.5-36.5c0,0,1.4,26.1-9.2,25.6L690.5,756.5z"/>
	<path class="st1" d="M658.8,744.3c0,0-3-27.9-29-32.9c0,0,11.6,24.2,1.4,26.7L658.8,744.3z"/>
	<path class="st4" d="M528.5,794.1c0,0,16.5-31.3,56.9-30.4C625.7,764.7,639,783,639,783"/>
	<path class="st4" d="M551.8,808.6c0,0,6.5-45.8,33.6-44.9c27.1,0.9,29.5,31.3,29.5,31.3"/>
	<path class="st1" d="M276.3,763.5c0,0-39.3,49,4.9,52.6c44.2,3.9,48.2-37.4,48.2-37.4s18.1,78-52.5,59.6
		C206.2,820,245.2,755.4,276.3,763.5z"/>
	<path class="st5" d="M573.7,415c0,0-45.2-88.4,0-215.5c45.5-127.4,30.1-199,30.1-199S506,196.7,509,260.4
		C513.1,363.7,541.8,395.9,573.7,415z"/>
	<path class="st0" d="M603.5,0.2c0,0,68.5,119.7,37.4,226.6C610,334.1,553.7,331.6,563.7,395c0,0-40.6-86.1,2.7-180.6
		C610.3,119.9,605.7,10,603.5,0.2z"/>
	<line class="st6" x1="568.3" y1="154.8" x2="636.8" y2="112.4"/>
	<line class="st6" x1="569.7" y1="174.5" x2="637.9" y2="132.1"/>
	<polygon class="st1" points="530.7,252.7 647.7,194.9 641.2,226.9 543.9,271.3 	"/>
	<path class="st5" d="M363,308.2l-55.8-10.4l-60.4-90.2l89.9,71.2C336.4,278.5,358.7,293.5,363,308.2z"/>
	<path class="st0" d="M301.2,293.5c0,0,93.7,130.3,221.3,127.8c0,0,32.5-10.7,51.5-6.6L363.3,308L301.2,293.5z"/>
	<path class="st5" d="M336.4,278.5c0,0,139,31.3,183.1,86.8c44.2,55.3,46.9,45.8,46.9,45.8L362.7,308L336.4,278.5z"/>
	<line class="st6" x1="354.3" y1="341.5" x2="416.4" y2="335.2"/>
	<line class="st6" x1="382.2" y1="351.5" x2="444.3" y2="345.2"/>
	<line class="st6" x1="461.6" y1="399.6" x2="535.3" y2="393.2"/>
	<path class="st5" d="M573.7,415c0,0-7.6-40.1,40.9-54.8c48.5-14.7,136.5,0,167.7-66.6C782.3,293.5,727.1,447.6,573.7,415z"/>
</g>
</svg>
