<svg xmlns="http://www.w3.org/2000/svg" viewBox="0 0 448.74 760.68"><defs><style>.cls-1{fill:#fa674b;}.cls-1,.cls-4,.cls-5,.cls-7{stroke:#fff;}.cls-1,.cls-5,.cls-6,.cls-7{stroke-miterlimit:10;}.cls-1,.cls-5,.cls-6{stroke-width:0.5px;}.cls-2,.cls-6{fill:#fff;}.cls-3{fill:#7f7ff9;}.cls-4,.cls-5,.cls-7{fill:none;}.cls-4,.cls-7{stroke-linecap:round;}.cls-4{stroke-linejoin:round;}.cls-6{stroke:#fa674b;}.cls-7{stroke-width:2px;}</style></defs><g id="Calque_2" data-name="Calque 2"><g id="Calque_1-2" data-name="Calque 1"><path class="cls-1" d="M244.1,361.27c79.34,1.15,140.2,149.37,146.6,207,0,0,60.91,1,57.66,55s-64.92,45.68-64.92,45.68-.14,91.65-134.13,91.55-138.77-77.37-138.77-77.37-74.75,39.23-86.21-36.19,78.19-46.59,78.19-46.59S100.71,359.22,244.1,361.27Z"/><path class="cls-2" d="M297.33,518.61a40.09,40.09,0,0,0,21.34-12.8s25.63,22.44,6.39,35.23S298.47,528.2,297.33,518.61Z"/><path class="cls-2" d="M222.57,585.87H121s2.33-41.63-45.69-35.23c-25.63,3.2-16,51.27,12.8,51.27,0,0-16,3.19-12.8,28.83s51.27,12.79,48-16l99.25-4.06S235.41,601.91,222.57,585.87Z"/><path class="cls-2" d="M258.23,585.87H359.86s-2.34-41.63,45.68-35.23c25.64,3.2,16,51.27-12.79,51.27,0,0,16,3.19,12.79,28.83s-51.26,12.79-48-16l-99.24-4.06S245.44,601.91,258.23,585.87Z"/><path class="cls-1" d="M216.18,621.1s22.43-16,6.39-35.23-30,0-30,0h-15s13-44.83,70.6-41.63,62.44,41.63,62.44,41.63l-32.84-.43s-9.5-12.37-19.58.43-7.06,25.63,7.45,35.23Z"/><path class="cls-2" d="M153.74,526.63s16,6.39,32,6.39c0,0-3.2,19.19-19.19,16S150.54,533,153.74,526.63Z"/><circle class="cls-3" cx="168.16" cy="537.84" r="6.4"/><circle class="cls-3" cx="315.47" cy="528.2" r="6.4"/><path class="cls-4" d="M128.11,510.59S197,573,241.81,496.17c0,0,33.65,75.28,97.67-17.61"/><path class="cls-4" d="M163.33,469s16,35.23,78.48,27.21,73-45.83,73-45.83"/><path class="cls-4" d="M189,449.77s12.79,16,48,9.6,44.82-25.64,44.82-25.64"/><path class="cls-4" d="M211.36,417.74s7.3,6.92,27.68,6.69,26.73-9.84,26.73-9.84"/><path class="cls-4" d="M144.34,526.63s-6.64,32,22.19,28.83S198,537.84,198,537.84s3.77,33.66-60.29,24"/><path class="cls-4" d="M284.77,526.63s16.28,44.82,61.15,28.83"/><path class="cls-4" d="M152.07,623s-8.07,33.32,0,67.74c0,0,17.71-50.41,104.16-51.22s92.46,51.22,92.46,51.22,8.4-38.57-14.8-67.74"/><path class="cls-2" d="M167.92,668.88s-7.78-20.29,6.68-33.23c0,0,2.67,22.54,10.17,20.82Z"/><path class="cls-2" d="M189,654.75s-1.72-24.11,16.18-31.55c0,0-4.92,22.14,2.67,23Z"/><path class="cls-2" d="M328.88,657.42s4.34-21.29-11.93-31.69c0,0,1,22.67-6.69,22.14Z"/><path class="cls-2" d="M305.82,646.87s-2.24-24.1-21.05-28.54c0,0,8.4,21,1.05,23.15Z"/><path class="cls-5" d="M211.36,690s11.88-27.07,41.19-26.35,38.86,16.75,38.86,16.75"/><path class="cls-5" d="M228.3,702.53s4.63-39.67,24.3-38.95S274,690.74,274,690.74"/><path class="cls-2" d="M28.48,663.58S0,705.92,32,709.17,67,676.75,67,676.75,80,744.4,28.82,728.36,5.76,656.47,28.48,663.58Z"/><path class="cls-6" d="M244.1,361.27s-32.89-76.57,0-186.93S265.82,1.82,265.82,1.82,195,172,197,227.18C200.19,316.88,220.86,344.8,244.1,361.27Z"/><path class="cls-1" d="M265.82,1.82S315.47,105.51,293,198.35s-63.3,90.84-56,145.74c0,0-29.5-74.57,2-156.57S267.4,10.23,265.82,1.82Z"/><line class="cls-7" x1="240.19" y1="135.91" x2="289.83" y2="99.11"/><line class="cls-7" x1="241.14" y1="152.95" x2="290.79" y2="116.1"/><polygon class="cls-2" points="212.98 220.79 297.71 170.52 293.03 198.35 222.57 236.83 212.98 220.79"/><path class="cls-6" d="M91.3,268.81l-40.53-9.07L6.91,181.55l65.2,61.67C72.06,243.17,88.1,256,91.3,268.81Z"/><path class="cls-1" d="M46.43,256S114.31,368.91,206.87,366.9c0,0,23.53-9.3,37.23-5.63L91.3,268.81Z"/><path class="cls-6" d="M72.06,243.17S172.93,270.38,205,318.45,239,358.17,239,358.17L91.3,268.81Z"/><line class="cls-7" x1="84.91" y1="297.64" x2="129.92" y2="292.2"/><line class="cls-7" x1="105.24" y1="306.33" x2="150.25" y2="300.93"/><line class="cls-7" x1="162.86" y1="348" x2="216.18" y2="342.46"/><path class="cls-6" d="M244.1,361.27s-5.53-34.8,29.69-47.59,99,0,121.59-57.66C395.38,256,355.33,389.63,244.1,361.27Z"/></g></g></svg>