<?xml version="1.0" encoding="utf-8"?>
<!-- Generator: Adobe Illustrator 25.0.1, SVG Export Plug-In . SVG Version: 6.00 Build 0)  -->
<svg version="1.1" id="Calque_1" xmlns="http://www.w3.org/2000/svg" xmlns:xlink="http://www.w3.org/1999/xlink" x="0px" y="0px"
	 viewBox="0 0 1366 768" style="enable-background:new 0 0 1366 768;" xml:space="preserve">
<style type="text/css">
	.st0{fill:#FA674B;stroke:#FFFFFF;stroke-width:0.5;stroke-miterlimit:10;}
	.st1{fill:#FFFFFF;}
	.st2{fill:#7F7FF9;}
	.st3{fill:none;stroke:#FFFFFF;stroke-linecap:round;stroke-linejoin:round;stroke-miterlimit:10;}
	.st4{fill:none;stroke:#FFFFFF;stroke-width:0.5;stroke-miterlimit:10;}
	.st5{fill:#FFFFFF;stroke:#FA674B;stroke-width:0.5;stroke-miterlimit:10;}
	.st6{fill:none;stroke:#FFFFFF;stroke-width:2;stroke-linecap:round;stroke-miterlimit:10;}
</style>
<g>
	<path class="st0" d="M705.8,63c166.2,2.4,293.7,312.9,307.1,433.6c0,0,127.6,2,120.8,115.1c-6.8,113.1-136,95.7-136,95.7
		s-0.3,192-281,191.8C436,899.1,426,737.1,426,737.1s-156.6,82.2-180.6-75.8c-24.1-158,163.8-97.6,163.8-97.6S405.4,58.7,705.8,63z"
		/>
	<path class="st1" d="M817.3,392.6c0,0,24.5-4,44.7-26.8c0,0,53.7,47,13.4,73.8C835.2,466.4,819.7,412.7,817.3,392.6z"/>
	<path class="st1" d="M660.7,533.5H447.8c0,0,4.9-87.2-95.7-73.8c-53.7,6.7-33.6,107.4,26.8,107.4c0,0-33.6,6.7-26.8,60.4
		c6.7,53.7,107.4,26.8,100.6-33.6l207.9-8.5C660.7,585.3,687.6,567.1,660.7,533.5z"/>
	<path class="st1" d="M735.4,533.5h212.9c0,0-4.9-87.2,95.7-73.8c53.7,6.7,33.6,107.4-26.8,107.4c0,0,33.6,6.7,26.8,60.4
		c-6.7,53.7-107.4,26.8-100.6-33.6l-207.9-8.5C735.4,585.3,708.6,567.1,735.4,533.5z"/>
	<path class="st0" d="M647.3,607.3c0,0,47-33.6,13.4-73.8c-33.6-40.2-62.9,0-62.9,0h-31.4c0,0,27.2-93.9,147.9-87.2
		c120.8,6.7,130.8,87.2,130.8,87.2l-68.8-0.9c0,0-19.9-25.9-41,0.9c-21,26.8-14.8,53.7,15.6,73.8H647.3z"/>
	<path class="st1" d="M516.5,409.4c0,0,33.6,13.4,67.1,13.4c0,0-6.7,40.2-40.2,33.6C509.8,449.6,509.8,422.8,516.5,409.4z"/>
	<circle class="st2" cx="546.7" cy="432.9" r="13.4"/>
	<circle class="st2" cx="855.3" cy="412.7" r="13.4"/>
	<path class="st3" d="M462.8,375.8c0,0,144.3,130.8,238.2-30.2c0,0,70.5,157.7,204.6-36.9"/>
	<path class="st3" d="M536.6,288.7c0,0,33.6,73.8,164.4,57c130.8-16.8,152.9-96,152.9-96"/>
	<path class="st3" d="M590.3,248.4c0,0,26.8,33.6,100.6,20.1c73.8-13.4,93.9-53.7,93.9-53.7"/>
	<path class="st3" d="M637.2,181.3c0,0,15.3,14.5,58,14c42.6-0.5,56-20.6,56-20.6"/>
	<path class="st3" d="M496.8,409.4c0,0-13.9,67.1,46.5,60.4c60.4-6.7,65.9-36.9,65.9-36.9s7.9,70.5-126.3,50.3"/>
	<path class="st3" d="M791,409.4c0,0,34.1,93.9,128.1,60.4"/>
	<path class="st3" d="M513,611.3c0,0-16.9,69.8,0,141.9c0,0,37.1-105.6,218.2-107.3c181.1-1.7,193.7,107.3,193.7,107.3
		s17.6-80.8-31-141.9"/>
	<path class="st1" d="M546.2,707.4c0,0-16.3-42.5,14-69.6c0,0,5.6,47.2,21.3,43.6L546.2,707.4z"/>
	<path class="st1" d="M590.3,677.8c0,0-3.6-50.5,33.9-66.1c0,0-10.3,46.4,5.6,48.2L590.3,677.8z"/>
	<path class="st1" d="M883.4,683.4c0,0,9.1-44.6-25-66.4c0,0,2.1,47.5-14,46.4L883.4,683.4z"/>
	<path class="st1" d="M835.1,661.3c0,0-4.7-50.5-44.1-59.8c0,0,17.6,44.1,2.2,48.5L835.1,661.3z"/>
	<path class="st4" d="M637.2,751.6c0,0,24.9-56.7,86.3-55.2c61.3,1.5,81.4,35.1,81.4,35.1"/>
	<path class="st4" d="M672.7,777.9c0,0,9.7-83.1,50.9-81.6c41.2,1.5,44.9,56.9,44.9,56.9"/>
	<path class="st1" d="M254.1,696.3c0,0-59.7,88.7,7.4,95.5s73.2-67.9,73.2-67.9s27.4,141.7-79.9,108.1
		C147.5,798.5,206.5,681.4,254.1,696.3z"/>
	<path class="st5" d="M705.8,63c0,0-68.9-160.4,0-391.6C774.8-560,751.3-690,751.3-690S602.9-333.6,607.1-217.9
		C613.8-30,657.1,28.5,705.8,63z"/>
	<path class="st0" d="M751.3-690c0,0,104,217.2,57,411.7S675.7-88,690.9,27c0,0-61.8-156.2,4.3-328
		C761.4-472.8,754.6-672.4,751.3-690z"/>
	<line class="st6" x1="697.6" y1="-409.1" x2="801.6" y2="-486.2"/>
	<line class="st6" x1="699.6" y1="-373.4" x2="803.6" y2="-450.6"/>
	<polygon class="st1" points="640.6,-231.3 818.1,-336.6 808.3,-278.3 660.7,-197.7 	"/>
	<path class="st5" d="M385.7-130.7l-84.9-19l-91.9-163.8l136.6,129.2C345.4-184.4,379-157.5,385.7-130.7z"/>
	<path class="st0" d="M291.7-157.5c0,0,142.2,236.5,336.1,232.3c0,0,49.3-19.5,78-11.8L385.7-130.7L291.7-157.5z"/>
	<path class="st5" d="M345.4-184.4c0,0,211.3,57,278.4,157.7c67.1,100.6,71.4,83.2,71.4,83.2L385.7-130.7L345.4-184.4z"/>
	<line class="st6" x1="372.3" y1="-70.3" x2="466.6" y2="-81.7"/>
	<line class="st6" x1="414.9" y1="-52.1" x2="509.2" y2="-63.4"/>
	<line class="st6" x1="535.6" y1="35.2" x2="647.3" y2="23.6"/>
	<path class="st5" d="M705.8,63c0,0-11.6-72.9,62.2-99.7s207.4,0,254.7-120.8C1022.7-157.5,938.8,122.4,705.8,63z"/>
</g>
</svg>
