<?xml version="1.0" encoding="utf-8"?>
<!-- Generator: Adobe Illustrator 25.2.1, SVG Export Plug-In . SVG Version: 6.00 Build 0)  -->
<svg version="1.1" id="Calque_1" xmlns="http://www.w3.org/2000/svg" xmlns:xlink="http://www.w3.org/1999/xlink" x="0px" y="0px"
	 viewBox="0 0 1366 768" style="enable-background:new 0 0 1366 768;" xml:space="preserve">
<style type="text/css">
	.st0{fill:#6DFBC6;}
	.st1{fill:none;stroke:#FFFFFF;stroke-width:2;stroke-linecap:round;stroke-linejoin:round;stroke-miterlimit:10;}
	.st2{fill:#7F7FF9;}
	.st3{fill:none;stroke:#FFFFFF;stroke-width:2;stroke-linecap:round;stroke-miterlimit:10;}
	.st4{fill:#0CE58C;}
	.st5{fill:#FA674B;stroke:#FFFFFF;stroke-width:0.5;stroke-miterlimit:10;}
	.st6{fill:#FFFFFF;}
	.st7{fill:none;stroke:#FFFFFF;stroke-linecap:round;stroke-linejoin:round;stroke-miterlimit:10;}
	.st8{fill:none;stroke:#FFFFFF;stroke-width:0.5;stroke-miterlimit:10;}
	.st9{fill:#7F7FF9;stroke:#FFFFFF;stroke-width:0.5;stroke-miterlimit:10;}
	.st10{fill:#FFFFFF;stroke:#7F7FF9;stroke-miterlimit:10;}
	.st11{fill:none;stroke:#FFFFFF;stroke-linecap:round;stroke-miterlimit:10;}
	.st12{fill:#FA674B;}
</style>
<g id="Calque_1_1_">
</g>
<g id="sol">
	<rect class="st0" width="1366" height="769"/>
	<line class="st1" x1="182" y1="368" x2="237" y2="368"/>
	<line class="st1" x1="266.92" y1="384.71" x2="321.92" y2="384.71"/>
	<line class="st1" x1="255" y1="354" x2="310" y2="354"/>
	<line class="st1" x1="130" y1="478" x2="185" y2="478"/>
	<line class="st1" x1="172" y1="455" x2="227" y2="455"/>
	<line class="st1" x1="247" y1="448" x2="302" y2="448"/>
	<line class="st1" x1="305" y1="471" x2="360" y2="471"/>
	<line class="st1" x1="569" y1="579" x2="624" y2="579"/>
	<line class="st1" x1="596.29" y1="513.76" x2="651.29" y2="513.76"/>
	<line class="st1" x1="668.21" y1="476.46" x2="723.21" y2="476.46"/>
	<line class="st1" x1="669.29" y1="499.76" x2="724.29" y2="499.76"/>
	<line class="st1" x1="526" y1="547" x2="581" y2="547"/>
	<line class="st1" x1="553.29" y1="490.76" x2="608.29" y2="490.76"/>
	<line class="st1" x1="646.29" y1="541.76" x2="701.29" y2="541.76"/>
	<line class="st1" x1="704.29" y1="564.76" x2="759.29" y2="564.76"/>
	<line class="st1" x1="844" y1="180" x2="899" y2="180"/>
	<line class="st1" x1="999.47" y1="142.82" x2="1054.47" y2="142.82"/>
	<line class="st1" x1="1000.55" y1="166.11" x2="1055.55" y2="166.11"/>
	<line class="st1" x1="1076.38" y1="631.4" x2="1115.83" y2="631.4"/>
	<line class="st1" x1="884.55" y1="157.11" x2="939.55" y2="157.11"/>
	<line class="st1" x1="977.55" y1="208.11" x2="1032.55" y2="208.11"/>
	<line class="st1" x1="1035.55" y1="231.11" x2="1090.55" y2="231.11"/>
	<line class="st1" x1="1258.55" y1="347.11" x2="1313.55" y2="347.11"/>
	<line class="st1" x1="1301.55" y1="313.11" x2="1356.55" y2="313.11"/>
	<line class="st1" x1="1193.55" y1="332.11" x2="1248.55" y2="332.11"/>
	<line class="st1" x1="1238.55" y1="299.11" x2="1293.55" y2="299.11"/>
	<line class="st1" x1="1120.55" y1="354.11" x2="1175.55" y2="354.11"/>
	<line class="st1" x1="139.88" y1="601.93" x2="194.88" y2="601.93"/>
	<line class="st1" x1="211.8" y1="564.64" x2="266.8" y2="564.64"/>
	<line class="st1" x1="212.88" y1="587.93" x2="267.88" y2="587.93"/>
	<line class="st1" x1="54.88" y1="601.93" x2="109.88" y2="601.93"/>
	<line class="st1" x1="96.88" y1="578.93" x2="151.88" y2="578.93"/>
	<line class="st1" x1="189.88" y1="629.93" x2="244.88" y2="629.93"/>
	<line class="st1" x1="247.88" y1="652.93" x2="302.88" y2="652.93"/>
	<line class="st1" x1="1145.75" y1="690.32" x2="1200.75" y2="690.32"/>
	<line class="st1" x1="1098.88" y1="674.93" x2="1153.88" y2="674.93"/>
	<line class="st1" x1="1008.88" y1="682.93" x2="1063.88" y2="682.93"/>
	<line class="st1" x1="1051.88" y1="648.93" x2="1106.88" y2="648.93"/>
	<line class="st1" x1="943.88" y1="667.93" x2="998.88" y2="667.93"/>
	<line class="st1" x1="1138.88" y1="648.93" x2="1193.88" y2="648.93"/>
	<line class="st1" x1="988.88" y1="634.93" x2="1043.88" y2="634.93"/>
	<line class="st1" x1="870.88" y1="689.93" x2="925.88" y2="689.93"/>
	<line class="st1" x1="916" y1="619" x2="971" y2="619"/>
	<line class="st1" x1="1186" y1="615" x2="1241" y2="615"/>
</g>
<g id="eau">
	<path class="st2" d="M879.28,769"/>
	<path class="st2" d="M1043.58-0.04c-4.28,33.42-20.04,74.52-46.06,118.49c-33.37,56.38-72.11,84.79-47.39,222.09
		c15.83,87.93,122.64,169.95,80.52,225.05C992.1,616.04,897.76,693.19,879.28,769l263.39-1c60.39-62.2,116.91-99.52,112.82-216.13
		c-6.53-186.57-98.46-154.49-69.59-237.7c28.88-83.21-0.65-127.78,30.79-178.89C1245.79,88,1288.47,84.76,1287.22,0L1043.58-0.04z"
		/>
	<path class="st3" d="M1001.64,342.74c0,0,10.54-20.49,37.46-20.49c26.92,0,34.91,20.49,34.91,20.49"/>
	<path class="st3" d="M1048.18,412c0,0,7.25-14.1,25.79-14.1S1098,412,1098,412"/>
	<path class="st3" d="M1008.87,670.76c0,0,7.02-13.64,24.95-13.64c17.93,0,23.24,13.64,23.24,13.64"/>
	<path class="st3" d="M1050.95,703.41c0,0,6.67-12.97,23.73-12.97s22.11,12.97,22.11,12.97"/>
	<path class="st3" d="M1084.17,648.8c0,0,6.67-12.97,23.73-12.97c17.05,0,22.11,12.97,22.11,12.97"/>
	<path class="st3" d="M1112.58,130.25c0,0,9.3-18.09,33.08-18.09s30.82,18.09,30.82,18.09"/>
	<path class="st3" d="M1164.58,74c0,0,7.12-13.85,25.32-13.85S1213.49,74,1213.49,74"/>
	<path class="st3" d="M1073.94,90.32c0,0,7.12-13.85,25.32-13.85s23.59,13.85,23.59,13.85"/>
	<path class="st3" d="M1082.74,373.32c0,0,7.12-13.85,25.32-13.85s23.59,13.85,23.59,13.85"/>
</g>
<path class="st4" d="M0,537.21"/>
<path class="st4" d="M596.29,766.99"/>
<path class="st4" d="M0,769l0-231.79c9.73,4.52,20.56,8.68,32.68,12.37c158.69,48.4,344.08-58,458.77,20
	c73.02,49.66-15.71,101,62.85,172c10.79,9.75,25.23,18.03,41.99,25.41L0,769z"/>
<g id="cannibales">
	<g>
		<path class="st5" d="M189.4,138.01c18.86,0.27,33.33,35.51,34.85,49.21c0,0,14.48,0.23,13.71,13.06
			c-0.77,12.83-15.43,10.86-15.43,10.86s-0.04,21.78-31.9,21.77s-32.99-18.39-32.99-18.39s-17.77,9.33-20.5-8.6
			s18.59-11.08,18.59-11.08S155.31,137.52,189.4,138.01z"/>
		<path class="st6" d="M202.06,175.42c0,0,2.78-0.45,5.07-3.05c0,0,6.09,5.33,1.52,8.38C204.08,183.8,202.33,177.71,202.06,175.42z"
			/>
		<path class="st6" d="M184.28,191.41h-24.17c0,0,0.56-9.9-10.86-8.38c-6.09,0.76-3.81,12.18,3.05,12.18c0,0-3.81,0.76-3.05,6.85
			c0.76,6.09,12.18,3.05,11.42-3.81l23.6-0.97C184.28,197.3,187.33,195.22,184.28,191.41z"/>
		<path class="st6" d="M192.77,191.41h24.17c0,0-0.56-9.9,10.86-8.38c6.09,0.76,3.81,12.18-3.05,12.18c0,0,3.81,0.76,3.05,6.85
			c-0.76,6.09-12.18,3.05-11.42-3.81l-23.6-0.97C192.77,197.3,189.72,195.22,192.77,191.41z"/>
		<path class="st5" d="M182.76,199.79c0,0,5.33-3.81,1.52-8.38s-7.14,0-7.14,0h-3.56c0,0,3.08-10.66,16.79-9.9
			c13.71,0.76,14.85,9.9,14.85,9.9l-7.81-0.1c0,0-2.26-2.94-4.65,0.1c-2.39,3.05-1.67,6.09,1.78,8.38H182.76z"/>
		<path class="st6" d="M167.91,177.33c0,0,3.81,1.52,7.61,1.52c0,0-0.76,4.57-4.57,3.81C167.15,181.89,167.15,178.85,167.91,177.33z
			"/>
		<circle class="st2" cx="171.34" cy="179.99" r="1.52"/>
		<circle class="st2" cx="206.37" cy="177.71" r="1.52"/>
		<path class="st7" d="M161.82,173.52c0,0,16.37,14.85,27.03-3.43c0,0,7.99,17.89,23.22-4.19"/>
		<path class="st7" d="M170.2,163.62c0,0,3.81,8.38,18.65,6.47c14.85-1.9,17.35-10.9,17.35-10.9"/>
		<path class="st7" d="M176.29,159.05c0,0,3.05,3.81,11.42,2.28c8.38-1.52,10.66-6.09,10.66-6.09"/>
		<path class="st7" d="M181.62,151.44c0,0,1.74,1.64,6.58,1.58s6.36-2.34,6.36-2.34"/>
		<path class="st7" d="M165.68,177.33c0,0-1.58,7.61,5.28,6.85c6.85-0.76,7.48-4.19,7.48-4.19s0.89,7.99-14.34,5.71"/>
		<path class="st7" d="M199.07,177.33c0,0,3.87,10.66,14.53,6.85"/>
		<path class="st7" d="M167.52,200.25c0,0-1.92,7.93,0,16.11c0,0,4.2-11.98,24.76-12.18c20.56-0.2,21.99,12.18,21.99,12.18
			s2-9.17-3.52-16.11"/>
		<path class="st6" d="M171.28,211.14c0,0-1.84-4.83,1.58-7.9c0,0,0.64,5.36,2.41,4.95L171.28,211.14z"/>
		<path class="st6" d="M176.29,207.78c0,0-0.41-5.74,3.84-7.5c0,0-1.17,5.27,0.64,5.47L176.29,207.78z"/>
		<path class="st6" d="M209.55,208.43c0,0,1.04-5.06-2.84-7.54c0,0,0.23,5.39-1.58,5.27L209.55,208.43z"/>
		<path class="st6" d="M204.07,205.92c0,0-0.53-5.73-5.01-6.78c0,0,2.01,5.01,0.25,5.5L204.07,205.92z"/>
		<path class="st8" d="M181.62,216.16c0,0,2.83-6.43,9.79-6.26c6.96,0.17,9.24,3.98,9.24,3.98"/>
		<path class="st8" d="M185.64,219.15c0,0,1.1-9.43,5.77-9.26s5.1,6.46,5.1,6.46"/>
		<path class="st6" d="M138.14,209.89c0,0-6.77,10.07,0.84,10.83c7.61,0.76,8.31-7.7,8.31-7.7s3.11,16.08-9.07,12.27
			S132.73,208.2,138.14,209.89z"/>
		<path class="st6" d="M189.4,138.01c0,0-7.82-18.2,0-44.45s5.16-41.01,5.16-41.01S177.72,93,178.19,106.14
			C178.96,127.46,183.87,134.1,189.4,138.01z"/>
		<path class="st5" d="M194.56,52.55c0,0,11.8,24.65,6.47,46.73s-15.06,21.59-13.32,34.64c0,0-7.01-17.73,0.49-37.23
			S194.94,54.55,194.56,52.55z"/>
		<line class="st3" x1="188.47" y1="84.44" x2="200.27" y2="75.68"/>
		<line class="st3" x1="188.69" y1="88.48" x2="200.5" y2="79.72"/>
		<polygon class="st6" points="182,104.61 202.14,92.66 201.04,99.28 184.28,108.42 		"/>
		<path class="st6" d="M153.07,116.03l-11.42-3.05L133,95.28l15.5,14.66C148.5,109.94,152.31,112.99,153.07,116.03z"/>
		<path class="st5" d="M142.41,112.99c0,0,16.14,26.84,38.15,26.36c0,0,5.59-2.21,8.85-1.34l-36.34-21.98L142.41,112.99z"/>
		<path class="st6" d="M148.5,109.94c0,0,23.98,6.47,31.6,17.89s8.1,9.45,8.1,9.45l-35.13-21.25L148.5,109.94z"/>
		<line class="st3" x1="151.54" y1="122.89" x2="162.26" y2="121.59"/>
		<line class="st3" x1="156.38" y1="124.96" x2="167.09" y2="123.66"/>
		<line class="st3" x1="170.08" y1="134.86" x2="182.76" y2="133.55"/>
		<path class="st6" d="M189.4,138.01c0,0-1.31-8.27,7.06-11.32s23.54,0,28.9-13.71C225.37,112.99,215.84,144.76,189.4,138.01z"/>
	</g>
</g>
<g id="Calque_8">
	<g>
		<rect x="809.6" y="216.99" class="st6" width="16.38" height="10.36"/>
		<g>
			<path class="st2" d="M817.62,161.34l-17.96-0.76c-4.27-0.18-8.36,1.71-10.99,5.08c-3.01,3.87-6.17,9.83-6.17,17.86
				c0,15.36,21.77,32.82,27.09,33.47c5.33,0.65,14.84-0.65,18.61,0c2.29,0.4,11.28-7.59,16.57-10.44c3.8-2.04,4.61-5.96,5.12-10.24
				l3.03-21.6c0.39-3.32-0.49-6.66-2.47-9.36l0,0c-2.67-3.64-7.02-5.66-11.52-5.36l-19.9,1.32
				C818.57,161.35,818.1,161.36,817.62,161.34z"/>
			<path class="st9" d="M837.96,159.25c0,0,13.16,10.15,11.4,23.15s-15.79,37.55,6.14,37.34s15.79-20.8,15.79-20.8
				s-1.33,16.38-9,6.42s8.12-32.77-6.79-48.28L837.96,159.25z"/>
			<path class="st9" d="M797.86,159.15c0,0-12.8,9.71-11.09,22.13s15.36,35.91-5.97,35.7c-21.33-0.21-15.36-19.89-15.36-19.89
				s1.29,15.67,8.75,6.14s-7.9-31.34,6.61-46.17L797.86,159.15z"/>
			<path class="st6" d="M795.18,170.23c0,0,13.01-3.07,15.09,3.83c0,0,2.19,3.71-8.95,3.6
				C790.18,177.54,795.18,170.23,795.18,170.23z"/>
			<path class="st6" d="M838.87,170.65c0,0-13.01-3.07-15.09,3.83c0,0-2.19,3.71,8.95,3.6
				C843.87,177.96,838.87,170.65,838.87,170.65z"/>
			<path class="st10" d="M721.93,129.86c0,0,23.89,32.39,96.41,31.51s94.62-35.21,94.62-35.21l-9-2.76c0,0-52.35,40.5-88.18,33.67
				C793.59,167.31,757,142.39,757,142.39l-26.53-24.81l-8.54,3.23V129.86z"/>
			<path class="st2" d="M721.93,114.41c10.68-5.34,32.1,44.55,93.52,41.14s83.93-44.55,97.58-32.61c5.12,5.12-8.53,3.41-8.53,3.41
				s-29.01,35.9-86.17,35.01s-87.74-41.55-91.29-40.13c-8.53,3.41-5.12,8.62-5.12,8.62S715.1,117.82,721.93,114.41z"/>
			<path class="st10" d="M763.25,145.81l17.55-1.53l8.53-1.71c0,0,8.53,8.53,30.71,6.83c22.18-1.71,30.12-6.83,30.12-6.83
				l20.12,1.69c0,0-24.07,12.64-50.8,13.15S769.59,149.05,763.25,145.81z"/>
			<path class="st9" d="M789.33,142.56v-6.53c0,0,9.17,1.93,30.18,1.67s29.54-3.67,29.54-3.67l1.11,8.53c0,0-9.53,5.85-32.08,6.6
				C806.14,149.56,801.27,149.39,789.33,142.56z"/>
			<path class="st9" d="M789.33,136.03c0,0-0.85-28.21,29.01-26.62s30.71,24.62,30.71,24.62s-8.74,3.07-29.54,3.67
				S789.33,136.03,789.33,136.03z"/>
			<path class="st11" d="M811.51,190.34c0,0-5.12,1.71-6.83,6.83s-18.77,5.12-11.94-8.53c1.71-3.41,11-0.26,6.35,5.84
				c-4.65,6.1-4.65-2.43-4.65-2.43"/>
			<path class="st11" d="M823.56,190.34c0,0,5.12,1.71,6.83,6.83s18.77,5.12,11.94-8.53c-1.71-3.41-11-0.26-6.35,5.84
				s4.65-2.43,4.65-2.43"/>
			<path class="st11" d="M808.1,183.52c0,0-1.71,2.31,0,3.72s5.12,1.4,5.12,4.81"/>
			<path class="st11" d="M826.11,183.52c0,0,1.71,2.31,0,3.72s-5.12,1.4-5.12,4.81"/>
			<circle class="st12" cx="802.13" cy="172.43" r="2.65"/>
			<circle class="st12" cx="830.86" cy="172.88" r="2.65"/>
			<path class="st10" d="M819.19,208.99c7.68,0.12,8.66,2.23,9.02,8c0.36,5.77-7.98,7.32-7.22,15.93c0,0-9.48-5.53-7.77-19.79
				C813.22,209.11,819.19,208.99,819.19,208.99z"/>
			<path class="st11" d="M810.28,201.56c0,0,5.62,4.4,17.93,0"/>
			<path class="st11" d="M796.15,164.75c0,0,20.3,0.59,20.39,6.27c0.09,2.27,1.99,3,4.45-0.78s11-7.19,17.82-5.49"/>
		</g>
	</g>
</g>
</svg>
