<?xml version="1.0" encoding="utf-8"?>
<!-- Generator: Adobe Illustrator 25.0.1, SVG Export Plug-In . SVG Version: 6.00 Build 0)  -->
<svg version="1.1" id="Calque_1" xmlns="http://www.w3.org/2000/svg" xmlns:xlink="http://www.w3.org/1999/xlink" x="0px" y="0px"
	 viewBox="0 0 1133.9 1133.9" style="enable-background:new 0 0 1133.9 1133.9;" xml:space="preserve">
<style type="text/css">
	.st0{fill:#7F7FF9;}
	.st1{fill:#7F7FF9;stroke:#FFFFFF;stroke-width:0.5;stroke-miterlimit:10;}
	.st2{fill:#FFFFFF;}
	.st3{fill:#FFFFFF;stroke:#7F7FF9;stroke-miterlimit:10;}
	.st4{fill:none;stroke:#FFFFFF;stroke-linecap:round;stroke-miterlimit:10;}
	.st5{fill:#FA674B;}
</style>
<g id="Calque_2_1_">
	<g id="Calque_1-2">
		<path class="st0" d="M570.9,532.7l-102.5-4.3c-24.3-1-47.7,9.8-62.6,29c-22.9,29-35.3,64.9-35.2,101.8
			c0,87.6,124.1,187.1,154.4,190.8c30.4,3.7,84.6-3.7,106.1,0c13.1,2.3,64.3-43.3,94.5-59.5c21.7-11.6,26.3-34,29.2-58.4L772.2,609
			c2.2-18.9-2.8-38-14-53.3l0,0c-15.2-20.8-40-32.3-65.7-30.6l-113.4,7.6C576.4,532.8,573.7,532.9,570.9,532.7z"/>
		<path class="st1" d="M687,520.8c0,0,75,57.9,65,132c-10,74.1-90,214.1,35,212.9c125-1.2,90-118.6,90-118.6s-7.6,93.4-51.3,36.6
			C782,727,872.1,596.9,787,508.5L687,520.8z"/>
		<path class="st1" d="M458.3,520.2c0,0-73,55.4-63.3,126.2c9.7,70.8,87.6,204.8-34,203.6c-121.6-1.2-87.6-113.4-87.6-113.4
			s7.4,89.4,49.9,35s-45-178.7,37.7-263.2L458.3,520.2z"/>
		<path class="st2" d="M443.1,583.4c0,0,74.2-17.5,86.1,21.8c0,0,12.4,21.2-51.1,20.5C414.5,625.2,443.1,583.4,443.1,583.4z"/>
		<path class="st2" d="M692.1,585.8c0,0-74.2-17.5-86.1,21.8c0,0-12.4,21.1,51.1,20.5S692.1,585.8,692.1,585.8z"/>
		<path class="st3" d="M25.4,353.2c0,0,136.2,184.7,549.7,179.7s539.4-200.8,539.4-200.8l-51.3-15.8c0,0-298.4,230.9-502.7,192
			c-126.5,58.3-335-83.7-335-83.7L74,283.3l-48.6,18.4L25.4,353.2L25.4,353.2z"/>
		<path class="st0" d="M25.4,265.1c60.9-30.4,183,254,533.2,234.6c350.2-19.5,478.6-254,556.4-185.9c29.2,29.2-48.7,19.4-48.7,19.4
			S901,537.9,575,532.8C249.1,527.8,74.8,296,54.5,304.1c-48.6,19.4-29.1,49.2-29.1,49.2S-13.5,284.6,25.4,265.1z"/>
		<path class="st3" d="M261,444.2l100-8.8l48.7-9.8c0,0,48.7,48.7,175.1,38.9c126.5-9.8,171.7-38.9,171.7-38.9l114.7,9.7
			c0,0-137.3,72.1-289.7,75C429.2,513.2,297.1,462.6,261,444.2z"/>
		<path class="st1" d="M409.7,425.7v-37.2c0,0,52.3,11,172.1,9.5c119.8-1.5,168.4-20.9,168.4-20.9l6.4,48.7
			c0,0-54.4,33.3-182.9,37.6C505.6,465.5,477.8,464.6,409.7,425.7z"/>
		<path class="st1" d="M409.7,388.4c0,0-4.9-160.9,165.4-151.8c170.3,9,175.1,140.4,175.1,140.4s-49.9,17.6-168.5,20.9
			S409.7,388.4,409.7,388.4z"/>
		<path class="st4" d="M536.2,698c0,0-29.2,9.8-38.9,38.9c-9.7,29.1-107,29.2-68.1-48.7c9.8-19.4,62.8-1.5,36.3,33.3
			c-26.5,34.8-26.5-13.8-26.5-13.8"/>
		<path class="st4" d="M604.8,698c0,0,29.2,9.8,38.9,38.9c9.7,29.1,107,29.2,68.1-48.7c-9.8-19.4-62.8-1.5-36.3,33.3
			c26.5,34.8,26.5-13.8,26.5-13.8"/>
		<path class="st4" d="M516.7,659.2c0,0-9.8,13.2,0,21.2c9.8,8,29.1,8,29.1,27.5"/>
		<path class="st4" d="M619.4,659.2c0,0,9.7,13.2,0,21.2c-9.7,8-29.2,8-29.2,27.5"/>
		<circle class="st5" cx="482.7" cy="595.9" r="15.1"/>
		<circle class="st5" cx="646.4" cy="598.5" r="15.1"/>
		<path class="st3" d="M579.9,804.4c43.8,0.7,49.3,12.7,51.4,45.6c2.1,32.9-45.5,41.7-41.2,90.8c0,0-54.1-31.6-44.3-112.8
			C545.9,805.1,579.9,804.4,579.9,804.4z"/>
		<path class="st4" d="M529.1,762.1c0,0,32.1,25.1,102.3,0"/>
		<path class="st4" d="M448.6,552.2c0,0,115.7,3.4,116.2,35.8c0.5,13,11.3,17.2,25.4-4.4c14-21.6,62.7-41,101.6-31.3"/>
	</g>
</g>
</svg>
