<?xml version="1.0" encoding="utf-8"?>
<!-- Generator: Adobe Illustrator 25.0.1, SVG Export Plug-In . SVG Version: 6.00 Build 0)  -->
<svg version="1.1" id="Calque_1" xmlns="http://www.w3.org/2000/svg" xmlns:xlink="http://www.w3.org/1999/xlink" x="0px" y="0px"
	 viewBox="0 0 1366 768" style="enable-background:new 0 0 1366 768;" xml:space="preserve">
<style type="text/css">
	.st0{fill:#7F7FF9;}
	.st1{fill:#7F7FF9;stroke:#FFFFFF;stroke-width:0.5;stroke-miterlimit:10;}
	.st2{fill:#FFFFFF;}
	.st3{fill:#FFFFFF;stroke:#7F7FF9;stroke-miterlimit:10;}
	.st4{fill:none;stroke:#FFFFFF;stroke-linecap:round;stroke-miterlimit:10;}
	.st5{fill:#FA674B;}
</style>
<g>
	<path class="st0" d="M685.8,251.5l-180.2-7.6c-42.8-1.8-83.8,17.2-110.2,51c-30.2,38.8-61.9,98.7-61.9,179.1
		c0,154.1,218.3,329.2,271.7,335.7c53.4,6.6,148.8-6.6,186.7,0c23,4,113.1-76.1,166.3-104.7c38.1-20.4,46.3-59.8,51.3-102.7
		l30.5-216.6c3.9-33.3-4.9-66.9-24.7-93.8l0,0C988.6,255.3,945,235,899.8,238l-199.6,13.3C695.5,251.6,690.6,251.7,685.8,251.5z"/>
	<path class="st1" d="M889.9,230.5c0,0,132,101.8,114.4,232.2c-17.6,130.3-158.4,376.7,61.6,374.6c220-2.2,158.4-208.6,158.4-208.6
		s-13.3,164.3-90.2,64.4c-77-100,81.5-328.7-68.1-484.3L889.9,230.5z"/>
	<path class="st1" d="M487.6,229.5c0,0-128.4,97.4-111.3,222c17.1,124.6,154.1,360.2-59.9,358.1c-213.9-2-154.1-199.5-154.1-199.5
		s13,157.2,87.7,61.6s-79.2-314.3,66.3-463L487.6,229.5z"/>
	<path class="st2" d="M460.8,340.7c0,0,130.5-30.8,151.4,38.4c0,0,21.9,37.2-89.9,36.1C410.6,414,460.8,340.7,460.8,340.7z"/>
	<path class="st2" d="M899,344.9c0,0-130.5-30.8-151.4,38.4c0,0-21.9,37.2,89.9,36.1C949.2,418.1,899,344.9,899,344.9z"/>
	<path class="st3" d="M-274-64.3c0,0,239.6,325,967,316.1c727.4-8.9,949.1-353.2,949.1-353.2l-90.2-27.7
		c0,0-525.1,406.2-884.5,337.8C444.9,311.3,77.9,61.4,77.9,61.4l-266.2-248.8l-85.6,32.4L-274-64.3L-274-64.3z"/>
	<path class="st0" d="M-274-219.3C-166.8-272.9,48,227.6,664.1,193.4S1506-253.5,1643-133.7c51.3,51.3-85.6,34.2-85.6,34.2
		s-291,360.1-864.4,351.2C119.6,242.9-187.1-165-222.7-150.8c-85.6,34.2-51.3,86.5-51.3,86.5S-342.4-185.1-274-219.3z"/>
	<path class="st3" d="M140.5,95.7l176-15.4l85.6-17.1c0,0,85.6,85.6,308.1,68.4c222.5-17.1,302.1-68.4,302.1-68.4l201.8,17
		c0,0-241.5,126.8-509.6,131.9C436.3,217.2,204.1,128.1,140.5,95.7z"/>
	<path class="st1" d="M402.1,63.2V-2.3c0,0,92,19.4,302.7,16.7c210.8-2.6,296.3-36.8,296.3-36.8l11.2,85.6c0,0-95.7,58.6-321.8,66.2
		C570.8,133.3,521.9,131.6,402.1,63.2z"/>
	<path class="st1" d="M402.1-2.4c0,0-8.6-283,291-267.1c299.6,15.9,308.1,247,308.1,247S913.4,8.4,704.8,14.3
		C496.2,20.3,402.1-2.4,402.1-2.4z"/>
	<path class="st4" d="M624.6,542.3c0,0-51.3,17.1-68.4,68.4c-17.1,51.3-188.3,51.3-119.8-85.6c17.1-34.2,110.4-2.6,63.8,58.6
		c-46.7,61.2-46.7-24.3-46.7-24.3"/>
	<path class="st4" d="M745.4,542.3c0,0,51.3,17.1,68.4,68.4c17.1,51.3,188.3,51.3,119.8-85.6c-17.1-34.2-110.4-2.6-63.8,58.6
		c46.7,61.2,46.7-24.3,46.7-24.3"/>
	<path class="st4" d="M590.3,473.9c0,0-17.1,23.2,0,37.3c17.1,14.1,51.3,14.1,51.3,48.3"/>
	<path class="st4" d="M771,473.9c0,0,17.1,23.2,0,37.3c-17.1,14.1-51.3,14.1-51.3,48.3"/>
	<circle class="st5" cx="530.5" cy="362.6" r="26.6"/>
	<circle class="st5" cx="818.6" cy="367.2" r="26.6"/>
	<path class="st3" d="M701.6,729.4c77,1.2,86.8,22.4,90.5,80.3c3.7,57.9-80.1,73.4-72.4,159.8c0,0-95.1-55.5-77.9-198.5
		C641.7,730.6,701.6,729.4,701.6,729.4z"/>
	<path class="st4" d="M612.2,655c0,0,56.4,44.1,179.9,0"/>
	<path class="st4" d="M470.5,285.7c0,0,203.6,5.9,204.5,62.9c0.9,22.8,19.9,30.2,44.6-7.8c24.7-37.9,110.3-72.1,178.8-55"/>
</g>
</svg>
