<svg xmlns="http://www.w3.org/2000/svg" viewBox="0 0 911.81 578.19"><defs><style>.cls-1,.cls-2{fill:#7f7ff9;}.cls-2,.cls-5{stroke:#fff;}.cls-2,.cls-4,.cls-5{stroke-miterlimit:10;}.cls-2{stroke-width:0.5px;}.cls-3,.cls-4{fill:#fff;}.cls-4{stroke:#7f7ff9;}.cls-5{fill:none;stroke-linecap:round;}.cls-6{fill:#fa674b;}</style></defs><g id="Calque_2" data-name="Calque 2"><g id="Calque_1-2" data-name="Calque 1"><path class="cls-1" d="M460.91,243.06,377,239.52a61.77,61.77,0,0,0-51.29,23.74,134.2,134.2,0,0,0-28.82,83.37c0,71.73,101.61,153.23,126.47,156.25s69.26-3.07,86.9,0c10.71,1.87,52.65-35.42,77.41-48.73,17.74-9.5,21.55-27.83,23.88-47.8l14.2-100.82a61.65,61.65,0,0,0-11.5-43.67h0a61.48,61.48,0,0,0-53.76-25.08L467.61,243A65,65,0,0,1,460.91,243.06Z"/><path class="cls-2" d="M555.91,233.29s61.44,47.38,53.25,108.08-73.73,175.34,28.67,174.36,73.73-97.1,73.73-97.1-6.19,76.48-42,30,37.93-153-31.7-225.43Z"/><path class="cls-2" d="M368.65,232.82s-59.76,45.34-51.81,103.33S388.57,503.82,289,502.84,217.23,410,217.23,410s6.06,73.17,40.83,28.67-36.87-146.3,30.86-215.51Z"/><path class="cls-3" d="M356.18,284.58s60.74-14.34,70.47,17.87c0,0,10.19,17.32-41.85,16.81S356.18,284.58,356.18,284.58Z"/><path class="cls-3" d="M560.15,286.53s-60.75-14.33-70.48,17.88c0,0-10.19,17.31,41.85,16.8S560.15,286.53,560.15,286.53Z"/><path class="cls-4" d="M14.15,96.06S125.68,247.34,464.26,243.2,906,78.8,906,78.8l-42-12.9S619.63,255,452.34,223.14C348.78,270.89,178,154.57,178,154.57L54,38.77,14.2,53.85l0,42.21Z"/><path class="cls-1" d="M14.15,23.92C64.05-1,164,231.94,450.81,216S842.69,8,906.45,63.76c23.88,23.88-39.84,15.92-39.84,15.92S731.16,247.3,464.26,243.15,54.6,49.19,38,55.8C-1.82,71.72,14.15,96.06,14.15,96.06S-17.69,39.84,14.15,23.92Z"/><path class="cls-4" d="M207.09,170.54,289,163.37l39.84-8s39.85,39.85,143.41,31.84,140.62-31.84,140.62-31.84l93.93,7.92s-112.41,59-237.2,61.39S236.69,185.62,207.09,170.54Z"/><path class="cls-2" d="M328.85,155.41V124.92s42.83,9,140.9,7.78,137.92-17.13,137.92-17.13l5.21,39.84s-44.54,27.28-149.78,30.82C407.38,188,384.62,187.25,328.85,155.41Z"/><path class="cls-2" d="M328.85,124.88S324.85-6.85,464.31.55s143.41,115,143.41,115-40.87,14.38-138,17.13S328.85,124.88,328.85,124.88Z"/><path class="cls-5" d="M432.42,378.42s-23.88,8-31.84,31.84-87.65,23.88-55.76-39.85c8-15.92,51.39-1.21,29.7,27.28s-21.74-11.31-21.74-11.31"/><path class="cls-5" d="M488.65,378.42s23.88,8,31.84,31.84,87.65,23.88,55.76-39.85c-8-15.92-51.39-1.21-29.7,27.28s21.74-11.31,21.74-11.31"/><path class="cls-5" d="M416.46,346.58s-8,10.8,0,17.36,23.87,6.57,23.87,22.48"/><path class="cls-5" d="M500.57,346.58s7.95,10.8,0,17.36-23.88,6.57-23.88,22.48"/><circle class="cls-6" cx="388.62" cy="294.77" r="12.38" transform="translate(35.4 631.16) rotate(-80.78)"/><circle class="cls-6" cx="522.72" cy="296.91" r="12.38"/><path class="cls-4" d="M468.26,465.51c35.84.56,40.4,10.42,42.13,37.37s-37.29,34.17-33.7,74.39c0,0-44.27-25.84-36.26-92.4C440.38,466.07,468.26,465.51,468.26,465.51Z"/><path class="cls-5" d="M426.65,430.88s26.25,20.52,83.74,0"/><path class="cls-5" d="M360.69,259s94.77,2.75,95.19,29.28c.42,10.61,9.26,14.05,20.76-3.63S528,251.07,559.87,259"/></g></g></svg>