<?xml version="1.0" encoding="utf-8"?>
<!-- Generator: Adobe Illustrator 25.0.1, SVG Export Plug-In . SVG Version: 6.00 Build 0)  -->
<svg version="1.1" id="Calque_1" xmlns="http://www.w3.org/2000/svg" xmlns:xlink="http://www.w3.org/1999/xlink" x="0px" y="0px"
	 viewBox="0 0 1366 768" style="enable-background:new 0 0 1366 768;" xml:space="preserve">
<style type="text/css">
	.st0{fill:#FA674B;stroke:#FFFFFF;stroke-width:0.5;stroke-miterlimit:10;}
	.st1{fill:#FFFFFF;}
	.st2{fill:#7F7FF9;}
	.st3{fill:none;stroke:#FFFFFF;stroke-linecap:round;stroke-linejoin:round;stroke-miterlimit:10;}
	.st4{fill:none;stroke:#FFFFFF;stroke-width:0.5;stroke-miterlimit:10;}
	.st5{fill:#FFFFFF;stroke:#FA674B;stroke-width:0.5;stroke-miterlimit:10;}
	.st6{fill:none;stroke:#FFFFFF;stroke-width:2;stroke-linecap:round;stroke-miterlimit:10;}
</style>
<g>
	<path class="st0" d="M734.2,355.3c69.8,1,123.4,131.4,129,182.1c0,0,53.6,0.8,50.7,48.4c-2.9,47.5-57.1,40.2-57.1,40.2
		s-0.1,80.7-118,80.6c-117.9,0-122.1-68.1-122.1-68.1s-65.8,34.5-75.9-31.8c-10.1-66.4,68.8-41,68.8-41S608,353.5,734.2,355.3z"/>
	<path class="st1" d="M781.1,493.8c0,0,10.3-1.7,18.8-11.3c0,0,22.6,19.7,5.6,31C788.6,524.8,782.1,502.2,781.1,493.8z"/>
	<path class="st1" d="M715.3,553h-89.4c0,0,2.1-36.6-40.2-31c-22.6,2.8-14.1,45.1,11.3,45.1c0,0-14.1,2.8-11.3,25.4
		c2.8,22.6,45.1,11.3,42.3-14.1l87.3-3.6C715.3,574.8,726.6,567.1,715.3,553z"/>
	<path class="st1" d="M746.7,553h89.4c0,0-2.1-36.6,40.2-31c22.6,2.8,14.1,45.1-11.3,45.1c0,0,14.1,2.8,11.3,25.4
		c-2.8,22.6-45.1,11.3-42.3-14.1l-87.3-3.6C746.7,574.8,735.4,567.1,746.7,553z"/>
	<path class="st0" d="M709.6,584c0,0,19.7-14.1,5.6-31c-14.1-16.9-26.4,0-26.4,0h-13.2c0,0,11.4-39.4,62.1-36.6
		c50.7,2.8,54.9,36.6,54.9,36.6l-28.9-0.4c0,0-8.4-10.9-17.2,0.4c-8.8,11.3-6.2,22.6,6.6,31H709.6z"/>
	<path class="st1" d="M654.7,500.9c0,0,14.1,5.6,28.2,5.6c0,0-2.8,16.9-16.9,14.1C651.9,517.7,651.9,506.5,654.7,500.9z"/>
	<circle class="st2" cx="667.4" cy="510.7" r="5.6"/>
	<circle class="st2" cx="797" cy="502.2" r="5.6"/>
	<path class="st3" d="M632.1,486.7c0,0,60.6,54.9,100.1-12.7c0,0,29.6,66.2,85.9-15.5"/>
	<path class="st3" d="M663.1,450.2c0,0,14.1,31,69.1,23.9s64.2-40.3,64.2-40.3"/>
	<path class="st3" d="M685.7,433.2c0,0,11.3,14.1,42.3,8.4c31-5.6,39.4-22.6,39.4-22.6"/>
	<path class="st3" d="M705.4,405c0,0,6.4,6.1,24.4,5.9c17.9-0.2,23.5-8.7,23.5-8.7"/>
	<path class="st3" d="M646.4,500.9c0,0-5.8,28.2,19.5,25.4s27.7-15.5,27.7-15.5s3.3,29.6-53.1,21.1"/>
	<path class="st3" d="M770,500.9c0,0,14.3,39.4,53.8,25.4"/>
	<path class="st3" d="M653.2,585.7c0,0-7.1,29.3,0,59.6c0,0,15.6-44.4,91.7-45.1s81.4,45.1,81.4,45.1s7.4-33.9-13-59.6"/>
	<path class="st1" d="M667.2,626c0,0-6.8-17.9,5.9-29.2c0,0,2.4,19.8,8.9,18.3L667.2,626z"/>
	<path class="st1" d="M685.7,613.6c0,0-1.5-21.2,14.2-27.8c0,0-4.3,19.5,2.4,20.2L685.7,613.6z"/>
	<path class="st1" d="M808.8,616c0,0,3.8-18.7-10.5-27.9c0,0,0.9,20-5.9,19.5L808.8,616z"/>
	<path class="st1" d="M788.5,606.7c0,0-2-21.2-18.5-25.1c0,0,7.4,18.5,0.9,20.4L788.5,606.7z"/>
	<path class="st4" d="M705.4,644.6c0,0,10.5-23.8,36.3-23.2c25.8,0.6,34.2,14.7,34.2,14.7"/>
	<path class="st4" d="M720.3,655.7c0,0,4.1-34.9,21.4-34.3c17.3,0.6,18.9,23.9,18.9,23.9"/>
	<path class="st1" d="M544.5,621.4c0,0-25.1,37.3,3.1,40.1c28.2,2.9,30.7-28.5,30.7-28.5s11.5,59.5-33.6,45.4
		C499.7,664.3,524.5,615.1,544.5,621.4z"/>
	<path class="st5" d="M734.2,355.3c0,0-28.9-67.4,0-164.5C763.2,93.6,753.3,39,753.3,39S691,188.7,692.8,237.3
		C695.6,316.3,713.8,340.9,734.2,355.3z"/>
	<path class="st0" d="M753.3,39c0,0,43.7,91.2,23.9,172.9c-19.7,81.7-55.7,79.9-49.3,128.2c0,0-26-65.6,1.8-137.8
		C757.6,130.3,754.7,46.4,753.3,39z"/>
	<line class="st6" x1="730.8" y1="157" x2="774.5" y2="124.6"/>
	<line class="st6" x1="731.6" y1="172" x2="775.3" y2="139.6"/>
	<polygon class="st1" points="706.8,231.7 781.4,187.5 777.3,212 715.3,245.8 	"/>
	<path class="st5" d="M599.8,274l-35.7-8l-38.6-68.8l57.4,54.3C582.8,251.4,596.9,262.7,599.8,274z"/>
	<path class="st0" d="M560.3,262.7c0,0,59.7,99.3,141.2,97.6c0,0,20.7-8.2,32.8-5L599.8,274L560.3,262.7z"/>
	<path class="st5" d="M582.8,251.4c0,0,88.8,23.9,116.9,66.2c28.2,42.3,30,35,30,35l-130-78.6L582.8,251.4z"/>
	<line class="st6" x1="594.1" y1="299.4" x2="633.7" y2="294.6"/>
	<line class="st6" x1="612" y1="307" x2="651.6" y2="302.3"/>
	<line class="st6" x1="662.7" y1="343.7" x2="709.6" y2="338.8"/>
	<path class="st5" d="M734.2,355.3c0,0-4.9-30.6,26.1-41.9c31-11.3,87.1,0,107-50.7C867.3,262.7,832.1,380.3,734.2,355.3z"/>
</g>
</svg>
