<?xml version="1.0" encoding="utf-8"?>
<!-- Generator: Adobe Illustrator 25.0.1, SVG Export Plug-In . SVG Version: 6.00 Build 0)  -->
<svg version="1.1" id="Calque_1" xmlns="http://www.w3.org/2000/svg" xmlns:xlink="http://www.w3.org/1999/xlink" x="0px" y="0px"
	 viewBox="0 0 1366 768" style="enable-background:new 0 0 1366 768;" xml:space="preserve">
<style type="text/css">
	.st0{fill:#7F7FF9;}
	.st1{fill:#7F7FF9;stroke:#FFFFFF;stroke-width:0.5;stroke-miterlimit:10;}
	.st2{fill:#FFFFFF;}
	.st3{fill:#FFFFFF;stroke:#7F7FF9;stroke-miterlimit:10;}
	.st4{fill:none;stroke:#FFFFFF;stroke-linecap:round;stroke-miterlimit:10;}
	.st5{fill:#FA674B;}
</style>
<g>
	<path class="st0" d="M667.7,327.8l-103.6-4.4c-24.6-1-48.2,9.9-63.3,29.3c-17.4,22.3-35.6,56.7-35.6,103
		c0,88.6,125.5,189.2,156.2,193c30.7,3.8,85.5-3.8,107.3,0c13.2,2.3,65-43.7,95.6-60.2c21.9-11.7,26.6-34.4,29.5-59l17.5-124.5
		c2.2-19.1-2.8-38.5-14.2-53.9l0,0c-15.3-21-40.4-32.7-66.4-31L676,327.7C673.3,327.8,670.5,327.9,667.7,327.8z"/>
	<path class="st1" d="M785,315.7c0,0,75.9,58.5,65.8,133.5c-10.1,74.9-91.1,216.5,35.4,215.3c126.5-1.3,91.1-119.9,91.1-119.9
		s-7.6,94.4-51.9,37c-44.3-57.5,46.9-189-39.1-278.4L785,315.7z"/>
	<path class="st1" d="M553.8,315.1c0,0-73.8,56-64,127.6c9.8,71.6,88.6,207.1-34.4,205.9c-123-1.1-88.6-114.7-88.6-114.7
		s7.5,90.4,50.4,35.4c42.9-55-45.5-180.7,38.1-266.2L553.8,315.1z"/>
	<path class="st2" d="M538.4,379c0,0,75-17.7,87,22.1c0,0,12.6,21.4-51.7,20.8C509.5,421.2,538.4,379,538.4,379z"/>
	<path class="st2" d="M790.3,381.5c0,0-75-17.7-87,22.1c0,0-12.6,21.4,51.7,20.8C819.1,423.5,790.3,381.5,790.3,381.5z"/>
	<path class="st3" d="M116,146.2c0,0,137.7,186.8,555.9,181.7s545.6-203,545.6-203l-51.9-15.9c0,0-301.9,233.5-508.5,194.2
		c-127.9,59-338.9-84.7-338.9-84.7l-153-143L116,94.1L116,146.2L116,146.2z"/>
	<path class="st0" d="M116,57.1C177.6,26.3,301.1,314,655.2,294.4c354.2-19.7,484-256.9,562.7-188c29.5,29.5-49.2,19.7-49.2,19.7
		s-167.3,207-496.9,201.9C342.2,322.8,165.9,88.3,145.5,96.5c-49.2,19.7-29.5,49.7-29.5,49.7S76.7,76.8,116,57.1z"/>
	<path class="st3" d="M354.3,238.2l101.2-8.9l49.2-9.8c0,0,49.2,49.2,177.1,39.3c127.9-9.8,173.7-39.3,173.7-39.3l116,9.8
		c0,0-138.8,72.9-292.9,75.8C524.3,308.1,390.8,256.8,354.3,238.2z"/>
	<path class="st1" d="M504.6,219.5v-37.7c0,0,52.9,11.2,174,9.6C799.8,190,849,170.3,849,170.3l6.4,49.2c0,0-55,33.7-185,38.1
		C601.6,259.8,573.5,258.8,504.6,219.5z"/>
	<path class="st1" d="M504.6,181.8c0,0-4.9-162.7,167.3-153.5s177.1,142,177.1,142s-50.5,17.8-170.4,21.2
		C558.7,194.9,504.6,181.8,504.6,181.8z"/>
	<path class="st4" d="M632.5,494.9c0,0-29.5,9.8-39.3,39.3c-9.8,29.5-108.2,29.5-68.9-49.2c9.8-19.7,63.5-1.5,36.7,33.7
		c-26.8,35.2-26.8-14-26.8-14"/>
	<path class="st4" d="M702,494.9c0,0,29.5,9.8,39.3,39.3c9.8,29.5,108.2,29.5,68.9-49.2c-9.8-19.7-63.5-1.5-36.7,33.7
		c26.8,35.2,26.8-14,26.8-14"/>
	<path class="st4" d="M612.8,455.6c0,0-9.8,13.3,0,21.4c9.8,8.1,29.5,8.1,29.5,27.8"/>
	<path class="st4" d="M716.7,455.6c0,0,9.8,13.3,0,21.4c-9.8,8.1-29.5,8.1-29.5,27.8"/>
	
		<ellipse transform="matrix(0.1602 -0.9871 0.9871 0.1602 99.2111 899.8802)" class="st5" cx="578.4" cy="391.6" rx="15.3" ry="15.3"/>
	<circle class="st5" cx="744.1" cy="394.3" r="15.3"/>
	<path class="st3" d="M676.8,602.5c44.3,0.7,49.9,12.9,52,46.2s-46,42.2-41.6,91.9c0,0-54.7-31.9-44.8-114.1
		C642.4,603.2,676.8,602.5,676.8,602.5z"/>
	<path class="st4" d="M625.4,559.7c0,0,32.4,25.4,103.4,0"/>
	<path class="st4" d="M544,347.4c0,0,117,3.4,117.6,36.2c0.5,13.1,11.4,17.4,25.6-4.5c14.2-21.8,63.4-41.4,102.8-31.6"/>
</g>
</svg>
